<?xml version="1.0" encoding="utf-8"?>
<!-- Generator: Adobe Illustrator 25.2.1, SVG Export Plug-In . SVG Version: 6.00 Build 0)  -->
<svg version="1.1" id="Layer_1" xmlns="http://www.w3.org/2000/svg" xmlns:xlink="http://www.w3.org/1999/xlink" x="0px" y="0px"
	 viewBox="0 0 16 16" style="enable-background:new 0 0 16 16;" xml:space="preserve">
<style type="text/css">
	.st0{fill-rule:evenodd;clip-rule:evenodd;fill:#FFFFFF;}
</style>
<path class="st0" d="M1,8c0-0.3,0.2-0.5,0.5-0.5h11.8l-3.1-3.1c-0.2-0.2-0.2-0.5,0-0.7c0.2-0.2,0.5-0.2,0.7,0l4,4
	c0.2,0.2,0.2,0.5,0,0.7c0,0,0,0,0,0l-4,4c-0.2,0.2-0.5,0.2-0.7,0s-0.2-0.5,0-0.7l3.1-3.1H1.5C1.2,8.5,1,8.3,1,8z"/>
</svg>
